<?xml version="1.0" encoding="iso-8859-1"?>
<!-- Generator: Adobe Illustrator 19.0.0, SVG Export Plug-In . SVG Version: 6.00 Build 0)  -->
<svg version="1.1" id="Layer_1" xmlns="http://www.w3.org/2000/svg" xmlns:xlink="http://www.w3.org/1999/xlink" x="0px" y="0px"
	 viewBox="0 0 480.012 480.012" style="enable-background:new 0 0 480.012 480.012;" xml:space="preserve">
<g transform="translate(0 -540.36)">
	<g>
		<path style="fill:#CA639A;" d="M199.743,991.792l-30.932-16.461l-16.642,27.495l31.113,17.546L199.743,991.792z"/>
		<path style="fill:#CA639A;" d="M273.96,991.792l30.932-16.461l16.642,27.495l-31.113,17.546L273.96,991.792z"/>
	</g>
	<g>
		<path style="fill:#AC4D7D;" d="M304.891,975.331l-30.932,16.461l3.664,6.361c11.943-2.511,23.564-6.048,34.691-10.559
			L304.891,975.331L304.891,975.331z"/>
		<path style="fill:#AC4D7D;" d="M168.811,975.331l-8.453,13.965c11.314,4.28,23.097,7.566,35.172,9.809l4.213-7.313
			L168.811,975.331L168.811,975.331z"/>
	</g>
	<g>
		<path style="fill:#FF99CB;" d="M307.605,979.672l44.137-32.56l26.048,44.86l-46.307,27.857L307.605,979.672z"/>
		<path style="fill:#FF99CB;" d="M166.098,979.672l-44.137-32.56l-26.048,44.86l46.307,27.857L166.098,979.672z"/>
	</g>
	<g>
		<path style="fill:#E070A8;" d="M351.741,947.112l-44.137,32.561l4.711,7.922c17.216-6.986,33.075-16.234,47.014-27.414
			L351.741,947.112z"/>
		<path style="fill:#E070A8;" d="M121.962,947.112l-9.268,15.959c14.236,10.811,30.318,19.658,47.678,26.23l5.727-9.629
			L121.962,947.112z"/>
	</g>
	<path style="fill:#FFB61C;" d="M186.298,575.128c-10.146,24.126,1.187,51.91,25.313,62.056s51.91-1.187,62.056-25.313l0,0
		c10.146-24.126-1.187-51.91-25.313-62.056S196.445,551.001,186.298,575.128z"/>
	<path style="fill:#FCD116;" d="M188.711,569.391c-10.146,24.126,1.187,51.91,25.313,62.056s51.91-1.187,62.056-25.313
		s-1.187-51.91-25.313-62.056S198.857,545.265,188.711,569.391L188.711,569.391z"/>
	<g>
		
			<path shape-rendering="auto" image-rendering="auto" color-rendering="auto" color-interpolation="sRGB" style="fill:#FFB61C;" d="
			M248.071,550.489c20.583,8.656,30.255,32.366,21.598,52.95c-8.656,20.583-32.366,30.255-52.95,21.599s-30.255-32.366-21.598-52.95
			S227.488,541.832,248.071,550.489L248.071,550.489z M247.896,550.905c-20.358-8.562-43.796,0.999-52.358,21.357
			c-8.562,20.358,0.999,43.796,21.357,52.358s43.797-0.999,52.358-21.357C277.815,582.905,268.254,559.467,247.896,550.905z"/>
		<path style="fill:#FFB61C;" d="M247.985,550.699c20.471,8.609,30.087,32.184,21.478,52.655c-0.219,0.521-0.455,1.032-0.693,1.539
			c7.485-20.09-2.149-42.687-22.096-51.076s-42.842,0.528-51.965,19.93c0.196-0.525,0.402-1.048,0.622-1.569
			C203.939,551.706,227.514,542.09,247.985,550.699L247.985,550.699z"/>
		<path style="fill:#FFB61C;" d="M199.531,588.29c0.059,3.419,2.878,6.144,6.298,6.086c0,0,0,0,0,0
			c3.42-0.059,6.144-2.878,6.086-6.298c0,0,0,0,0,0c-0.059-3.419-2.878-6.144-6.298-6.086
			C202.197,582.051,199.472,584.871,199.531,588.29L199.531,588.29L199.531,588.29z"/>
		
			<path shape-rendering="auto" image-rendering="auto" color-rendering="auto" color-interpolation="sRGB" style="fill:#FFB61C;" d="
			M205.597,580.804c3.622-0.062,6.616,2.833,6.678,6.455c0.062,3.622-2.831,6.616-6.453,6.678s-6.618-2.831-6.68-6.453
			S201.974,580.866,205.597,580.804L205.597,580.804z"/>
	</g>
	<path shape-rendering="auto" image-rendering="auto" color-rendering="auto" color-interpolation="sRGB" style="fill:#FCD116;" d="
		M205.61,581.554c-3.217,0.055-5.773,2.7-5.718,5.917c0.055,3.217,2.7,5.771,5.917,5.716c3.217-0.055,5.771-2.698,5.716-5.915
		C211.47,584.055,208.826,581.499,205.61,581.554L205.61,581.554z"/>
	<path style="fill:#E3BD14;" d="M205.609,581.55c-3.214,0.055-5.776,2.706-5.721,5.92c0.031,1.679,0.786,3.264,2.07,4.346
		c-1.146-1.077-1.807-2.571-1.834-4.143c-0.055-3.214,2.506-5.865,5.721-5.92c1.414-0.022,2.787,0.472,3.863,1.389
		C208.603,582.096,207.131,581.524,205.609,581.55L205.609,581.55z"/>
	<g>
		<path style="fill:#FFB61C;" d="M230.442,560.114v3.111c-3.387,0.227-6.193,1.18-8.284,2.919c-2.496,2.077-3.717,5.213-3.717,8.56
			c0,4.689,2.019,8.008,4.728,9.868c2.31,1.586,4.895,2.337,7.273,3.114v16.913c-2.982-0.288-4.934-1.102-6.14-2.272
			c-1.423-1.382-2.202-3.525-2.096-7.199l-4.706-0.14c-0.129,4.444,0.916,8.184,3.522,10.714c2.302,2.235,5.518,3.316,9.42,3.625
			v6.085h3.53v-6.037c4.069-0.212,7.396-1.314,9.762-3.548c2.727-2.575,3.791-6.418,3.53-10.791v-0.051v-0.051
			c-0.428-4.137-2.875-7.084-5.721-8.736c-2.436-1.414-5.133-2.071-7.563-2.463v-15.795c2.41,0.186,4.183,0.818,5.316,1.746
			c1.361,1.116,2.146,2.711,2.096,5.684l4.706,0.08c0.067-3.968-1.266-7.315-3.816-9.405c-2.208-1.81-5.071-2.637-8.302-2.827
			v-3.103h-3.53L230.442,560.114z M230.442,567.945v14.766c-1.839-0.63-3.465-1.235-4.611-2.022
			c-1.702-1.169-2.684-2.439-2.684-5.986c0-2.301,0.662-3.813,2.019-4.942C226.256,568.855,227.962,568.157,230.442,567.945
			L230.442,567.945z M233.972,588.513c1.887,0.365,3.757,0.919,5.203,1.758c1.909,1.108,3.104,2.449,3.39,5.111
			c0.195,3.469-0.56,5.611-2.059,7.026c-1.275,1.204-3.365,2.049-6.534,2.25L233.972,588.513L233.972,588.513z"/>
		<path style="fill:#ECAA1F;" d="M230.443,560.113v3.113c-3.387,0.227-6.193,1.18-8.283,2.919c-2.496,2.077-3.718,5.212-3.718,8.558
			c0,4.689,2.019,8.009,4.728,9.87c2.31,1.587,4.895,2.336,7.273,3.113v16.352c0.117,0.013,0.21,0.037,0.33,0.05v-16.399
			c-2.305-0.753-4.813-1.48-7.053-3.018c-2.627-1.804-4.584-5.022-4.584-9.569c0-3.245,1.184-6.287,3.605-8.302
			c2.027-1.687,4.747-2.61,8.032-2.83v-3.016h3.199v-0.84L230.443,560.113L230.443,560.113z M234.194,563.236v0.725
			c3.133,0.184,5.909,0.986,8.05,2.741c2.391,1.96,3.667,5.064,3.691,8.744h0.154c0.067-3.968-1.266-7.313-3.817-9.404
			c-2.156-1.767-4.94-2.594-8.079-2.809L234.194,563.236z M230.773,568.548c-0.119,0.013-0.214,0.035-0.33,0.047v14.116
			c-0.896-0.307-1.736-0.61-2.5-0.929c0.845,0.377,1.795,0.729,2.83,1.084L230.773,568.548L230.773,568.548z M234.194,583.774v0.082
			c2.357,0.381,4.973,1.017,7.336,2.388c2.76,1.602,5.133,4.461,5.547,8.472v0.05v0.05c0.253,4.241-0.778,7.967-3.422,10.464
			c-2.294,2.167-5.521,3.235-9.467,3.44v0.639c3.966-0.24,7.218-1.339,9.54-3.532c2.727-2.575,3.79-6.416,3.529-10.789v-0.052
			v-0.052c-0.428-4.137-2.874-7.084-5.72-8.736c-2.364-1.371-4.968-2.025-7.341-2.422L234.194,583.774z M234.194,588.489v0.074
			c1.811,0.365,3.591,0.901,4.979,1.707c1.671,0.969,2.795,2.118,3.241,4.173c-0.403-2.114-1.504-3.279-3.176-4.249
			C237.838,589.381,236.024,588.844,234.194,588.489L234.194,588.489z M217.499,594.987c-0.129,4.444,0.918,8.185,3.524,10.716
			c2.302,2.235,5.518,3.314,9.42,3.623v6.087h3.529v-0.84h-3.199v-5.898c-3.783-0.3-6.902-1.349-9.134-3.516
			c-2.48-2.407-3.494-5.947-3.414-10.15L217.499,594.987L217.499,594.987z"/>
	</g>
	<g>
		<path style="fill:#FFB61C;" d="M252.907,588.287c0.059,3.419,2.878,6.144,6.298,6.086c0,0,0,0,0,0
			c3.419-0.059,6.144-2.878,6.086-6.298l0,0c-0.059-3.42-2.878-6.144-6.298-6.086c0,0,0,0,0,0
			C255.573,582.048,252.848,584.867,252.907,588.287L252.907,588.287z"/>
		
			<path shape-rendering="auto" image-rendering="auto" color-rendering="auto" color-interpolation="sRGB" style="fill:#FFB61C;" d="
			M258.971,580.804c3.622-0.062,6.616,2.833,6.678,6.455c0.062,3.622-2.831,6.616-6.453,6.678s-6.618-2.831-6.68-6.453
			S255.349,580.866,258.971,580.804L258.971,580.804z"/>
	</g>
	<path shape-rendering="auto" image-rendering="auto" color-rendering="auto" color-interpolation="sRGB" style="fill:#FCD116;" d="
		M258.984,581.554c-3.217,0.055-5.773,2.7-5.718,5.917c0.055,3.217,2.7,5.771,5.917,5.716c3.217-0.055,5.771-2.698,5.716-5.915
		C264.844,584.055,262.201,581.499,258.984,581.554L258.984,581.554z"/>
	<path style="fill:#E3BD14;" d="M258.983,581.55c-3.214,0.055-5.776,2.706-5.721,5.92c0.031,1.679,0.786,3.264,2.07,4.346
		c-1.146-1.077-1.807-2.571-1.834-4.143c-0.055-3.214,2.506-5.865,5.721-5.92c1.414-0.022,2.787,0.472,3.863,1.389
		C261.977,582.096,260.505,581.524,258.983,581.55z"/>
	<g>
		<path style="fill:#E070A8;" d="M341.452,722.16c11.534-20.93,35.606-46.623,34.573-62.835
			c-0.699-10.977-27.301-11.723-41.235-8.373c-11.998,2.885-23.017,9.809-32.535,17.662c-6.443,5.317-15.921,19.353-15.921,19.353"
			/>
		<path style="fill:#BF6692;" d="M357.264,658.728c-4.765,0.059-9.343,0.501-13.088,1.248c-12.9,2.574-24.925,9.491-35.391,17.461
			c-4.594,3.498-10.656,10.801-14.381,15.537l47.047,29.188c11.192-20.31,34.186-45.104,34.596-61.369
			C370.513,659.275,363.72,658.648,357.264,658.728z"/>
		<path style="fill:#FF99CB;" d="M346.842,737.902c14.657-20.839,43.154-45.265,43.947-62.566
			c0.536-11.713-27.565-15.599-42.719-13.67c-13.049,1.661-25.53,7.717-36.53,14.933c-7.446,4.884-19.122,18.657-19.122,18.657"/>
	</g>
	<g>
		<path style="fill:#AC4D7D;" d="M49.969,843.723c0,87.878,82.463,159.117,184.187,159.117l0,0
			c101.723,0,184.187-71.239,184.187-159.117l0,0c0-87.878-82.463-159.117-184.187-159.117S49.969,755.845,49.969,843.723z"/>
	</g>
	<path shape-rendering="auto" image-rendering="auto" color-rendering="auto" color-interpolation="sRGB" style="fill:#FEAED8;" d="
		M74.921,697.217c-3.89-0.221-7.636,1.332-10.689,3.395c-4.071,2.75-7.37,6.57-9.125,10.934c-2.618,6.509-2.139,13.413-0.07,19.84
		c-2.405,0.284-4.769,0.38-6.902,0.131c-1.852-0.216-6.994-3.609-10.779-7.398c-3.785-3.789-6.576-7.484-6.576-7.484
		c-1.518-2.1-4.451-2.572-6.551-1.053c-2.1,1.518-2.572,4.451-1.053,6.551c0.036,0.05,0.073,0.098,0.11,0.147
		c0,0,3.122,4.155,7.434,8.471s9.448,9.282,16.326,10.086c3.906,0.457,7.999,0.234,12.057-0.523c1.397,2.405,2.904,4.722,4.525,6.73
		c3.543,4.391,8.885,6.59,13.514,8.406c4.629,1.816,8.635,2.865,8.635,2.865c2.503,0.67,5.075-0.817,5.745-3.32
		c0.67-2.503-0.817-5.075-3.32-5.745c-0.014-0.004-0.028-0.007-0.042-0.011c0,0-3.529-0.93-7.59-2.523s-8.565-4.234-9.639-5.564
		c-0.885-1.096-1.62-2.434-2.408-3.697c0.339-0.144,0.696-0.237,1.031-0.389c7.155-3.241,13.576-8.422,16.787-15.717
		c1.778-4.039,1.804-8.544,0.719-12.783c-1.085-4.24-3.472-8.62-8.219-10.486C77.53,697.562,76.217,697.291,74.921,697.217z
		 M72.94,706.789c1.019-0.241,1.873-0.213,2.465,0.019c0.692,0.272,1.952,1.699,2.563,4.082c0.61,2.383,0.381,5.315-0.217,6.674
		c-1.976,4.488-6.458,8.408-12.072,10.951c-0.395,0.179-0.823,0.293-1.227,0.457c-1.648-5.019-2.183-10.091-0.641-13.926
		c0.843-2.097,3.166-4.967,5.672-6.66C70.736,707.541,71.921,707.031,72.94,706.789L72.94,706.789z"/>
	<path style="fill:#FF99CB;" d="M236.852,676.648c-101.723,0-184.186,71.24-184.186,159.117
		c0.001,87.877,82.463,159.115,184.186,159.115c77.678-0.088,146.941-42.266,173.146-105.437c6.575,2.723,21.719-7.77,28.927-16.133
		c11.556-13.408,16.228-30.726,18.739-49.687c1.17-8.834-13.726-17.177-24.927-20.04c0,0-22.453-5.162-25.674-16.184
		C380.838,697.674,289.793,677.658,236.852,676.648L236.852,676.648z"/>
	<path style="fill:#434445;" d="M351.781,758.205c0,6.793-5.507,12.3-12.3,12.3l0,0c-6.793,0-12.3-5.507-12.3-12.3
		s5.507-12.3,12.3-12.3S351.781,751.412,351.781,758.205L351.781,758.205z"/>
	<path shape-rendering="auto" image-rendering="auto" color-rendering="auto" color-interpolation="sRGB" style="fill:#AC4D7D;" d="
		M291.975,721.727c-1.511-0.007-2.975-0.525-4.154-1.469c-10.463-8.133-30.323-14.048-51.83-14.26
		c-21.507-0.212-41.844,5.274-53.086,13.307c-2.984,2.191-7.179,1.549-9.37-1.435c-2.191-2.984-1.549-7.179,1.435-9.37
		c0.047-0.035,0.095-0.068,0.142-0.102c14.863-10.619,37.268-16.037,61.012-15.803s45.748,6.059,59.924,17.078
		c2.955,2.23,3.542,6.433,1.312,9.388C296.086,720.75,294.09,721.738,291.975,721.727z"/>
	<path style="fill:#CA639A;" d="M283.32,857.965c0,13.513-3.999,24.407-11.996,32.68c-7.354,7.538-16.547,11.583-27.578,12.134
		v13.927h-13.238v-13.927c-11.859,0-21.373-3.263-28.543-9.79c-7.722-7.17-11.583-17.236-11.583-30.198h28.543
		c0,7.998,3.861,13.146,11.583,15.444v-32.68c-25.004-5.332-37.506-18.523-37.506-39.575c0-10.112,3.631-18.799,10.893-26.061
		c7.262-7.354,16.133-11.399,26.613-12.134v-12.962h13.237v12.962c10.296,0.46,18.799,3.861,25.51,10.204
		c6.711,6.343,10.066,14.524,10.066,24.544h-27.578c-0.552-4.688-3.217-8.365-7.998-11.031v29.371
		c10.572,2.206,19.534,6.435,26.889,12.686C279.092,840.545,283.32,848.68,283.32,857.965L283.32,857.965z M230.508,817.287v-25.096
		c-6.435,2.666-9.652,7.354-9.652,14.065C220.856,812.783,224.073,816.46,230.508,817.287z M254.225,862.515
		c0-7.814-3.493-12.64-10.48-14.479v30.474C250.732,875.477,254.225,870.145,254.225,862.515L254.225,862.515z"/>
	<path style="fill:#AE5B87;" d="M230.508,754.822v12.962c-10.48,0.735-19.35,4.78-26.612,12.134
		c-7.262,7.262-10.893,15.95-10.893,26.062c0,14.039,5.569,24.578,16.69,31.625c-9.614-7.009-14.425-17.038-14.425-30.091
		c0-10.112,3.631-18.797,10.893-26.06c7.262-7.354,16.132-11.399,26.612-12.134v-12.962h10.975v-1.537L230.508,754.822
		L230.508,754.822z M246.009,767.943v1.377c7.552,0.337,14.137,2.262,19.761,5.765C260.218,771.005,253.631,768.625,246.009,767.943
		L246.009,767.943z M246.37,793.259c3.127,2.452,4.932,5.535,5.372,9.273h1.99C252.848,798.69,250.39,795.601,246.37,793.259z
		 M232.772,793.725c-0.806,0.334-1.56,0.7-2.265,1.097v22.465c-1.684-0.216-3.142-0.634-4.385-1.241
		c1.588,1.483,3.801,2.409,6.65,2.775V793.725z M246.009,821.408v1c7.797,1.627,14.714,4.362,20.761,8.189
		C260.777,826.369,253.856,823.306,246.009,821.408z M230.508,846.546v31.688c-1.553-0.462-2.94-1.043-4.181-1.736
		c1.719,1.408,3.861,2.503,6.445,3.273v-32.68C231.993,846.924,231.263,846.727,230.508,846.546L230.508,846.546z M249.687,850.986
		c3.02,2.555,4.54,6.393,4.54,11.53c0,6.754-2.744,11.702-8.218,14.854v2.676c6.986-3.034,10.48-8.366,10.48-15.996
		C256.489,857.756,254.22,853.403,249.687,850.986L249.687,850.986z M190.382,862.791c0,12.962,3.863,23.028,11.585,30.199
		c1.539,1.401,3.193,2.643,4.948,3.744c-0.929-0.69-1.825-1.426-2.686-2.21c-7.722-7.17-11.582-17.237-11.582-30.199h26.332
		c-0.033-0.5-0.052-1.01-0.052-1.534H190.382L190.382,862.791z M230.508,904.273v12.433h2.265v-12.391
		C232.008,904.315,231.253,904.3,230.508,904.273L230.508,904.273z"/>
	<path shape-rendering="auto" image-rendering="auto" color-rendering="auto" color-interpolation="sRGB" style="fill:#964A70;" d="
		M236.123,692.597c-23.743-0.234-46.15,5.183-61.012,15.802c-3.004,2.163-3.685,6.352-1.522,9.356
		c1.934,2.685,5.538,3.557,8.486,2.053c-3.479-0.385-5.987-3.518-5.602-6.998c0.2-1.803,1.162-3.433,2.643-4.479
		c14.055-10.042,35.243-15.165,57.695-14.944c22.453,0.221,43.261,5.73,56.667,16.151c2.793,2.11,3.347,6.085,1.238,8.878
		c-1.204,1.595-3.09,2.528-5.089,2.518c-0.308-0.004-0.615-0.03-0.919-0.079c0.997,0.565,2.122,0.865,3.267,0.872
		c3.702,0.017,6.716-2.971,6.733-6.672c0.01-2.112-0.977-4.105-2.662-5.378C281.871,698.657,259.867,692.831,236.123,692.597
		L236.123,692.597z"/>
	<path style="fill:#F3F3F3;" d="M346.716,757.482c0,1.898-1.539,3.437-3.437,3.437l0,0c-1.898,0-3.437-1.539-3.437-3.437l0,0
		c0-1.898,1.539-3.437,3.437-3.437l0,0C345.178,754.045,346.716,755.583,346.716,757.482L346.716,757.482z"/>
</g>
<g>
</g>
<g>
</g>
<g>
</g>
<g>
</g>
<g>
</g>
<g>
</g>
<g>
</g>
<g>
</g>
<g>
</g>
<g>
</g>
<g>
</g>
<g>
</g>
<g>
</g>
<g>
</g>
<g>
</g>
</svg>
